<svg width="51" height="50" viewBox="0 0 51 50" fill="none" xmlns="http://www.w3.org/2000/svg">
<path d="M18.123 11.9795C17.2689 11.9795 16.5605 11.2712 16.5605 10.417V4.16699C16.5605 3.31283 17.2689 2.60449 18.123 2.60449C18.9772 2.60449 19.6855 3.31283 19.6855 4.16699V10.417C19.6855 11.2712 18.9772 11.9795 18.123 11.9795Z" fill="#7C32D2"/>
<path d="M33.748 11.9795C32.8939 11.9795 32.1855 11.2712 32.1855 10.417V4.16699C32.1855 3.31283 32.8939 2.60449 33.748 2.60449C34.6022 2.60449 35.3105 3.31283 35.3105 4.16699V10.417C35.3105 11.2712 34.6022 11.9795 33.748 11.9795Z" fill="#7C32D2"/>
<path d="M25.9355 29.3545C27.0189 29.3545 27.8105 28.7087 27.8105 27.6878C27.8105 26.6462 27.0189 26.042 25.9355 26.042C24.8522 26.042 24.0605 26.6462 24.0605 27.6878C24.0605 28.7087 24.8522 29.3545 25.9355 29.3545Z" fill="#7C32D2"/>
<path d="M25.9355 35.416C27.2472 35.416 28.3105 34.5486 28.3105 33.4785C28.3105 32.4085 27.2472 31.541 25.9355 31.541C24.6239 31.541 23.5605 32.4085 23.5605 33.4785C23.5605 34.5486 24.6239 35.416 25.9355 35.416Z" fill="#7C32D2"/>
<path d="M41.7064 9.37533C40.3314 8.35449 38.3522 9.33366 38.3522 11.0628V11.2712C38.3522 13.7087 36.6022 15.9587 34.1647 16.2087C31.3522 16.5003 28.9772 14.292 28.9772 11.542V9.37533C28.9772 8.22949 28.0397 7.29199 26.8939 7.29199H24.9772C23.8314 7.29199 22.8939 8.22949 22.8939 9.37533V11.542C22.8939 13.1878 22.0397 14.6462 20.748 15.4587C20.5605 15.5837 20.3522 15.6878 20.1439 15.792C19.9564 15.8962 19.748 15.9795 19.5189 16.042C19.2689 16.1253 18.998 16.1878 18.7064 16.2087C18.373 16.2503 18.0397 16.2503 17.7064 16.2087C17.4147 16.1878 17.1439 16.1253 16.8939 16.042C16.6855 15.9795 16.4772 15.8962 16.2689 15.792C16.0605 15.6878 15.8522 15.5837 15.6647 15.4587C14.3522 14.542 13.5189 12.9587 13.5189 11.2712V11.0628C13.5189 9.45866 11.8105 8.50033 10.4564 9.18783C10.4355 9.20866 10.4147 9.20866 10.3939 9.22949C10.3105 9.27116 10.248 9.31283 10.1647 9.37533C10.1022 9.43783 10.0189 9.47949 9.95638 9.54199C9.37305 10.0003 8.85222 10.5212 8.41472 11.0837C8.18555 11.3337 7.99805 11.6045 7.83138 11.8753C7.81055 11.8962 7.78972 11.917 7.76888 11.9587C7.58138 12.2295 7.41472 12.542 7.26888 12.8337C7.22722 12.8753 7.20638 12.8962 7.20638 12.9378C7.08138 13.1878 6.95638 13.4378 6.87305 13.7087C6.81055 13.8128 6.78972 13.8962 6.74805 14.0003C6.62305 14.3128 6.53972 14.6253 6.45638 14.9378C6.37305 15.2295 6.31055 15.542 6.26888 15.8545C6.22722 16.0837 6.20638 16.3128 6.18555 16.5628C6.16472 16.8545 6.14388 17.1462 6.14388 17.4378V35.6878C6.14388 41.292 10.6855 45.8337 16.2897 45.8337H35.5814C41.1855 45.8337 45.7272 41.292 45.7272 35.6878V17.4378C45.7272 14.1253 44.1439 11.2295 41.7064 9.37533ZM25.9355 38.0212C22.7064 38.0212 20.7272 36.417 20.7272 33.8337C20.7272 32.417 21.4564 31.1878 22.7272 30.4587C21.8105 29.8128 21.2064 28.8545 21.2064 27.542C21.2064 24.8337 23.373 23.4378 25.9355 23.4378C28.498 23.4378 30.6439 24.8337 30.6439 27.542C30.6439 28.8545 30.0605 29.8128 29.123 30.4587C30.4147 31.1878 31.1439 32.417 31.1439 33.8337C31.1439 36.417 29.1439 38.0212 25.9355 38.0212Z" fill="#7C32D2"/>
</svg>
