<svg width="51" height="50" viewBox="0 0 51 50" fill="none" xmlns="http://www.w3.org/2000/svg">
<path d="M34.6647 4.16699H17.2063C9.62301 4.16699 5.10217 8.68783 5.10217 16.2712V33.7295C5.10217 41.3128 9.62301 45.8337 17.2063 45.8337H34.6647C42.248 45.8337 46.7688 41.3128 46.7688 33.7295V16.2712C46.7688 8.68783 42.248 4.16699 34.6647 4.16699ZM21.7063 31.042L17.0188 35.7295C16.7063 36.042 16.3105 36.1878 15.9147 36.1878C15.5188 36.1878 15.1022 36.042 14.8105 35.7295L13.248 34.167C12.623 33.5628 12.623 32.5628 13.248 31.9587C13.8522 31.3545 14.8313 31.3545 15.4563 31.9587L15.9147 32.417L19.498 28.8337C20.1022 28.2295 21.0813 28.2295 21.7063 28.8337C22.3105 29.4378 22.3105 30.4378 21.7063 31.042ZM21.7063 16.4587L17.0188 21.1462C16.7063 21.4587 16.3105 21.6045 15.9147 21.6045C15.5188 21.6045 15.1022 21.4587 14.8105 21.1462L13.248 19.5837C12.623 18.9795 12.623 17.9795 13.248 17.3753C13.8522 16.7712 14.8313 16.7712 15.4563 17.3753L15.9147 17.8337L19.498 14.2503C20.1022 13.6462 21.0813 13.6462 21.7063 14.2503C22.3105 14.8545 22.3105 15.8545 21.7063 16.4587ZM37.5188 34.6253H26.5813C25.7272 34.6253 25.0188 33.917 25.0188 33.0628C25.0188 32.2087 25.7272 31.5003 26.5813 31.5003H37.5188C38.3938 31.5003 39.0813 32.2087 39.0813 33.0628C39.0813 33.917 38.3938 34.6253 37.5188 34.6253ZM37.5188 20.042H26.5813C25.7272 20.042 25.0188 19.3337 25.0188 18.4795C25.0188 17.6253 25.7272 16.917 26.5813 16.917H37.5188C38.3938 16.917 39.0813 17.6253 39.0813 18.4795C39.0813 19.3337 38.3938 20.042 37.5188 20.042Z" fill="#0D805D"/>
</svg>
